<svg xmlns="http://www.w3.org/2000/svg" viewBox="0 0 1024 1024" role="img" aria-labelledby="title">
  <title>Study Buddy</title>
  <defs>
    <linearGradient id="tile" x1="140" y1="92" x2="900" y2="940" gradientUnits="userSpaceOnUse">
      <stop offset="0" stop-color="#4E78FF"/>
      <stop offset="0.58" stop-color="#2B5CFF"/>
      <stop offset="1" stop-color="#183FCE"/>
    </linearGradient>
    <linearGradient id="frontS" x1="230" y1="182" x2="570" y2="830" gradientUnits="userSpaceOnUse">
      <stop offset="0" stop-color="#FFFFFF"/>
      <stop offset="1" stop-color="#EAF1FF"/>
    </linearGradient>
    <linearGradient id="rearB" x1="470" y1="170" x2="820" y2="840" gradientUnits="userSpaceOnUse">
      <stop offset="0" stop-color="#F4F7FF" stop-opacity="0.86"/>
      <stop offset="1" stop-color="#BFD0FF" stop-opacity="0.62"/>
    </linearGradient>
    <filter id="softShadow" x="-20%" y="-20%" width="140%" height="140%">
      <feDropShadow dx="0" dy="28" stdDeviation="28" flood-color="#0B1B56" flood-opacity="0.25"/>
    </filter>
    <filter id="letterShadow" x="-35%" y="-35%" width="170%" height="170%">
      <feDropShadow dx="0" dy="18" stdDeviation="16" flood-color="#0D2A9F" flood-opacity="0.32"/>
    </filter>
  </defs>

  <rect x="64" y="64" width="896" height="896" rx="178" fill="url(#tile)" filter="url(#softShadow)"/>
  <path d="M210 164h604c25 0 46 21 46 46v604c0 25-21 46-46 46H210c-25 0-46-21-46-46V210c0-25 21-46 46-46Z" fill="none" stroke="#FFFFFF" stroke-opacity="0.22" stroke-width="22"/>

  <g filter="url(#letterShadow)" font-family="Arial Black, Arial, Helvetica, sans-serif" font-weight="900">
    <text x="608" y="715" text-anchor="middle" font-size="615" fill="url(#rearB)" opacity="0.92">B</text>
    <text x="416" y="708" text-anchor="middle" font-size="610" fill="url(#frontS)">S</text>
  </g>

  <path d="M224 810c128 52 381 74 571-46" fill="none" stroke="#FFFFFF" stroke-opacity="0.18" stroke-width="34" stroke-linecap="round"/>
</svg>
